<svg xmlns="http://www.w3.org/2000/svg" xmlns:xlink="http://www.w3.org/1999/xlink" viewBox="0 0 2877.72 1824.97"><defs><style>.cls-1{fill:#232323;}.cls-2{opacity:0.98;}.cls-18,.cls-26,.cls-28,.cls-3,.cls-30,.cls-40,.cls-41,.cls-47,.cls-48,.cls-56,.cls-57{fill:none;}.cls-3{stroke:#333;stroke-width:11.86px;}.cls-18,.cls-26,.cls-28,.cls-3,.cls-30,.cls-57{stroke-linecap:round;}.cls-18,.cls-26,.cls-28,.cls-3,.cls-30,.cls-40,.cls-41,.cls-42,.cls-47,.cls-48,.cls-56,.cls-57{stroke-miterlimit:10;}.cls-4{fill:url(#Degradado_sin_nombre_57);}.cls-5{fill:#a695ef;}.cls-6{fill:#7e57c2;}.cls-7{fill:#5e35b1;}.cls-8{fill:#9575cd;}.cls-9{fill:#6a1b9a;}.cls-10{fill:#4a148c;}.cls-11{fill:#8e24aa;}.cls-12{fill:#3f51b5;}.cls-13{fill:#7986cb;}.cls-14{fill:#283593;}.cls-15{fill:#b39ddb;}.cls-16{fill:#4f3199;}.cls-17{fill:#b8a3e5;}.cls-18{stroke:#5e35b1;stroke-width:2.61px;}.cls-19{fill:url(#Degradado_sin_nombre_24);}.cls-20{fill:#bdf2ee;}.cls-21{fill:#26c6da;}.cls-22{fill:#80deea;}.cls-23{fill:#009faf;}.cls-24{fill:#00acc1;}.cls-25{font-size:41.51px;}.cls-25,.cls-27,.cls-29,.cls-50{fill:#fff;}.cls-25,.cls-27,.cls-29{font-family:VarelaRound-Regular, Varela Round;}.cls-26{stroke:#56ccbe;}.cls-26,.cls-28,.cls-30{stroke-width:10.67px;}.cls-27{font-size:43.88px;}.cls-28{stroke:#26c6da;}.cls-29{font-size:44.04px;}.cls-30{stroke:#64b5f6;}.cls-31{fill:url(#Degradado_sin_nombre_62);}.cls-32{fill:#e593a5;}.cls-33{fill:#ad1457;}.cls-34{fill:#f57f17;}.cls-35{fill:#fbc02d;}.cls-36{fill:#ffa726;}.cls-37{fill:#960b54;}.cls-38{fill:#ec407a;}.cls-39{fill:#ff5f9c;}.cls-40,.cls-41{stroke:#fec194;}.cls-40,.cls-56{stroke-width:1.19px;}.cls-41{stroke-width:1.07px;}.cls-42{fill:#fec194;}.cls-42,.cls-57{stroke:#ec407a;}.cls-42,.cls-47{stroke-width:0.24px;}.cls-43{fill:#8e0038;}.cls-44{fill:#c6366d;}.cls-45{fill:#ef62a2;}.cls-46{fill:#dd3378;}.cls-47,.cls-48{stroke:#e593a5;}.cls-48{stroke-width:0.23px;}.cls-49{fill:#c1c1c1;}.cls-51{fill:#777;}.cls-52{fill:#f44336;}.cls-53{fill:#b71c1c;}.cls-54{fill:#ff8a80;}.cls-55{fill:#560b3a;}.cls-56{stroke:#960b54;}.cls-57{stroke-width:1.78px;}</style><linearGradient id="Degradado_sin_nombre_57" x1="1172.6" y1="648.98" x2="1598.59" y2="1182.22" gradientUnits="userSpaceOnUse"><stop offset="0" stop-color="#a32cdf"/><stop offset="0.17" stop-color="#9f2edf"/><stop offset="0.34" stop-color="#9432de"/><stop offset="0.5" stop-color="#803bdc"/><stop offset="0.66" stop-color="#6546da"/><stop offset="0.82" stop-color="#4255d6"/><stop offset="0.97" stop-color="#1866d3"/><stop offset="1" stop-color="#106ad2"/></linearGradient><linearGradient id="Degradado_sin_nombre_24" x1="599.73" y1="513.77" x2="1025.72" y2="1047" gradientUnits="userSpaceOnUse"><stop offset="0" stop-color="#00ffa9"/><stop offset="0.15" stop-color="#00fbab"/><stop offset="0.3" stop-color="#01f0b0"/><stop offset="0.45" stop-color="#03dcba"/><stop offset="0.59" stop-color="#05c1c7"/><stop offset="0.73" stop-color="#079fd7"/><stop offset="0.77" stop-color="#0895dc"/><stop offset="1" stop-color="#0d4dff"/></linearGradient><linearGradient id="Degradado_sin_nombre_62" x1="1479.79" y1="65.44" x2="1905.78" y2="598.67" gradientUnits="userSpaceOnUse"><stop offset="0" stop-color="#fec194"/><stop offset="0.14" stop-color="#febd93"/><stop offset="0.28" stop-color="#feb290"/><stop offset="0.42" stop-color="#fe9e8b"/><stop offset="0.55" stop-color="#ff8384"/><stop offset="0.69" stop-color="#ff617b"/><stop offset="0.71" stop-color="#ff5a79"/><stop offset="0.8" stop-color="#ff4373"/><stop offset="0.98" stop-color="#ff0863"/><stop offset="1" stop-color="#ff0061"/></linearGradient></defs><title>Recurso 9</title><g id="Capa_2" data-name="Capa 2"><g id="final_frame4"><g id="bg_practicandoColores"><g id="example_tiles"><g id="Tiles"><path id="tile" class="cls-1" d="M901.68,734.81l278.13,150.5a77.48,77.48,0,0,0,74.49-.42l332-184.57a23.36,23.36,0,0,0-.25-41L1275.9,491.79a44,44,0,0,0-42.26.23l-332.25,184C878.25,688.88,878.41,722.22,901.68,734.81Z"/><path id="tile-2" data-name="tile" class="cls-1" d="M457.58,977.67l278.13,150.5a77.45,77.45,0,0,0,74.49-.43l332-184.56a23.36,23.36,0,0,0-.25-41L831.8,734.65a44,44,0,0,0-42.26.22l-332.25,184C434.15,931.74,434.31,965.07,457.58,977.67Z"/><path id="tile-3" data-name="tile" class="cls-1" d="M701.93,1152.46,391.77,984.91a44,44,0,0,0-42.26.22L17.26,1169.18c-23.14,12.82-23,46.15.29,58.75l278.13,150.5a77.45,77.45,0,0,0,74.49-.43l332-184.56A23.36,23.36,0,0,0,701.93,1152.46Z"/><path id="tile-4" data-name="tile" class="cls-1" d="M1342.66,490.26l278.12,150.51a77.45,77.45,0,0,0,74.49-.43l332-184.57a23.36,23.36,0,0,0-.25-41L1716.87,247.25a44,44,0,0,0-42.25.22l-332.25,184C1319.22,444.34,1319.39,477.67,1342.66,490.26Z"/><path id="tile-5" data-name="tile" class="cls-1" d="M2150.39,780.11,1840.22,612.56a44,44,0,0,0-42.25.22l-332.25,184c-23.15,12.82-23,46.16.29,58.75l278.12,150.5a77.42,77.42,0,0,0,74.49-.42l332-184.57A23.36,23.36,0,0,0,2150.39,780.11Z"/><path id="tile-6" data-name="tile" class="cls-1" d="M1738.8,1154.46,2016.93,1305a77.42,77.42,0,0,0,74.49-.42l332-184.57a23.37,23.37,0,0,0-.24-41L2113,911.44a44,44,0,0,0-42.26.23l-332.25,184C1715.37,1108.53,1715.53,1141.87,1738.8,1154.46Z"/><path id="tile-7" data-name="tile" class="cls-1" d="M2703.42,1400.93l-310.16-167.55a44,44,0,0,0-42.26.22l-332.25,184.05c-23.14,12.82-23,46.15.29,58.74l278.13,150.51a77.45,77.45,0,0,0,74.49-.43l332-184.56A23.36,23.36,0,0,0,2703.42,1400.93Z"/><path id="tile-8" data-name="tile" class="cls-1" d="M1721,1025.62,1410.87,858.07a44,44,0,0,0-42.26.23l-332.25,184c-23.14,12.82-23,46.16.29,58.75l278.13,150.5a77.48,77.48,0,0,0,74.49-.42l332-184.57A23.36,23.36,0,0,0,1721,1025.62Z"/><path id="tile-9" data-name="tile" class="cls-1" d="M1982.78,1319.25,1672.62,1151.7a44,44,0,0,0-42.26.22l-332.25,184c-23.14,12.82-23,46.15.29,58.75l278.13,150.5a77.48,77.48,0,0,0,74.49-.42l332-184.57A23.36,23.36,0,0,0,1982.78,1319.25Z"/><path id="tile-10" data-name="tile" class="cls-1" d="M1581.89,1589.67l-310.16-167.55a44,44,0,0,0-42.26.23l-332.25,184c-23.14,12.82-23,46.16.29,58.75l278.13,150.5a77.48,77.48,0,0,0,74.49-.42l332-184.57A23.36,23.36,0,0,0,1581.89,1589.67Z"/><path id="tile-11" data-name="tile" class="cls-1" d="M1278,1269.31,967.85,1101.76a44,44,0,0,0-42.25.22L593.35,1286c-23.15,12.82-23,46.15.29,58.74l278.12,150.51a77.45,77.45,0,0,0,74.49-.43l332-184.57A23.36,23.36,0,0,0,1278,1269.31Z"/><path id="tile-12" data-name="tile" class="cls-1" d="M2248.67,367.26l-332.25,184c-23.14,12.82-23,46.15.29,58.75l278.13,150.5a77.48,77.48,0,0,0,74.49-.42l332-184.57a23.37,23.37,0,0,0-.24-41L2290.93,367A44,44,0,0,0,2248.67,367.26Z"/><path id="tile-13" data-name="tile" class="cls-1" d="M2865.46,831.74,2555.3,664.19a44,44,0,0,0-42.26.23l-332.25,184c-23.14,12.82-23,46.16.29,58.75l278.13,150.5a77.48,77.48,0,0,0,74.49-.42l332-184.57A23.36,23.36,0,0,0,2865.46,831.74Z"/><path id="tile-14" data-name="tile" class="cls-1" d="M1781.5,248.31l278.13,150.5a77.45,77.45,0,0,0,74.49-.43l332-184.56a23.36,23.36,0,0,0-.25-41L2155.72,5.29a44,44,0,0,0-42.26.22L1781.21,189.56C1758.07,202.38,1758.23,235.71,1781.5,248.31Z"/></g><g id="null_logos"><g id="null_logo" class="cls-2"><path class="cls-3" d="M910.25,1300.19l-27.6,15.5c-42,23.55,23.93,59.45,66.67,35.46l64.59-36.26,51.43-28.87"/><path class="cls-3" d="M885,1314.37l33.47-18.79c42-23.56-23.94-59.46-66.68-35.46l-64.58,36.25"/><line class="cls-3" x1="1091.76" y1="1300.07" x2="946.06" y2="1381.86"/></g><g id="null_logo-2" data-name="null_logo" class="cls-2"><path class="cls-3" d="M1789.55,813.82l-27.61,15.5c-42,23.55,23.94,59.45,66.68,35.46l64.58-36.26,51.44-28.87"/><path class="cls-3" d="M1764.3,828l33.47-18.79c42-23.55-23.94-59.45-66.68-35.46L1666.51,810"/><line class="cls-3" x1="1971.06" y1="813.7" x2="1825.36" y2="895.49"/></g><g id="null_logo-3" data-name="null_logo" class="cls-2"><path class="cls-3" d="M2111.47,196.78s14.36-8.05-27.6,15.5,23.94,59.45,66.68,35.46l64.58-36.26,51.43-28.87"/><path class="cls-3" d="M2086.22,211l33.48-18.79c42-23.55-23.94-59.45-66.68-35.46L1988.44,193"/><line class="cls-3" x1="2292.99" y1="196.66" x2="2147.29" y2="278.45"/></g></g><g id="purple_graphs"><path id="utility_example" class="cls-4" d="M990.57,903.39A48.38,48.38,0,0,0,1011,924.64l270.26,146.24a77.42,77.42,0,0,0,74.49-.42l332-184.57c16.88-6.8,20.44-67.29-.91-73.22l-309.5-135.3a44,44,0,0,0-42.26.22l-332.25,184C971.14,820.4,975.54,872.68,990.57,903.39Z"/><path id="utility_example-2" data-name="utility_example" class="cls-5" d="M1000.78,884.8l278.12,150.5a77.44,77.44,0,0,0,74.5-.42l332.16-184.65c17.92-11.47,15.92-32.08-.24-40.81L1375,641.76a44,44,0,0,0-42.17.22L1000.49,826.05C977.34,838.87,966.93,868.41,1000.78,884.8Z"/></g><g id="purple_stuff"><g id="porpol"><polyline class="cls-6" points="1080.58 815.03 1228.45 732.75 1358.49 802.95 1211.19 885.23"/><polygon class="cls-7" points="1211.19 895.01 1358.75 813.84 1358.75 802.77 1211.19 885.23 1211.19 895.01"/><polyline class="cls-8" points="1211.19 885.23 1211.19 895.01 1080.58 824.24 1080.58 815.03"/></g><g id="deep_purple"><path class="cls-9" d="M1243.21,724c1.65,0,47.44-25.82,47.44-25.82l140,75.43-46.85,27Z"/><polygon class="cls-10" points="1430.61 773.55 1430.61 781.27 1384.31 807.18 1384.31 800.01 1430.61 773.55"/><polygon class="cls-11" points="1384.31 807.18 1243.21 731.12 1243.21 723.95 1384.31 800.01 1384.31 807.18"/></g><g id="deep_blue"><polygon class="cls-12" points="1314.65 669.1 1349.19 649.1 1623.03 797.54 1588.5 816.92 1314.65 669.1"/><polygon class="cls-13" points="1314.65 669.1 1314.65 673.94 1588.5 820.56 1588.5 816.92 1314.65 669.1"/><polygon class="cls-14" points="1588.5 816.92 1623.03 797.54 1623.03 801.17 1588.5 820.56 1588.5 816.92"/></g><polygon class="cls-15" points="1399.42 993.06 1399.42 935.83 1308.8 886.51 1308.8 943.74 1399.42 993.06"/><path class="cls-7" d="M1399.42,935.83,1491,884.18l.46,57.23-92,51.65Z"/><path class="cls-6" d="M1401.17,834.17l-92.45,52.12,90.62,49.32L1490.88,884Zm-27.38,72.34,26.54-14.89,26.09,14.43-26.09,15.35Z"/><polygon class="cls-16" points="1400.33 849.28 1335.34 885.58 1373.79 906.51 1400.33 891.63 1400.33 849.28"/><polygon class="cls-17" points="1465.32 884.64 1400.33 849.28 1400.33 891.63 1426.42 906.05 1465.32 884.64"/><polygon class="cls-15" points="1399.95 902.74 1399.95 869.04 1346.6 840 1346.6 873.7 1399.95 902.74"/><path class="cls-7" d="M1400,869l53.89-30.41.27,33.7L1400,902.74Z"/><path class="cls-6" d="M1401,809.19l-54.43,30.68,53.35,29,53.89-30.41Zm-16.13,42.59,15.63-8.76,15.36,8.49-15.36,9Z"/><polygon class="cls-16" points="1400.49 818.09 1362.23 839.46 1384.86 851.78 1400.49 843.02 1400.49 818.09"/><polygon class="cls-17" points="1438.76 838.91 1400.49 818.09 1400.49 843.02 1415.85 851.51 1438.76 838.91"/><g id="nullLogo_RED"><path class="cls-18" d="M1212.15,802.09l-8.11,4.68c-12.33,7.12,6.32,18.16,18.88,10.91l19-11L1257,798"/><path class="cls-18" d="M1204.73,806.37l9.83-5.67c12.33-7.12-6.32-18.16-18.88-10.91l-19,11"/><line class="cls-18" x1="1264.5" y1="802.32" x2="1221.69" y2="827.04"/></g></g><g id="olive"><path id="utility_example-3" data-name="utility_example" class="cls-19" d="M417.7,768.18a48.38,48.38,0,0,0,20.45,21.25L708.41,935.67a77.42,77.42,0,0,0,74.49-.42l332-184.57c16.88-6.81,20.44-67.3-.91-73.23L804.5,542.16a44,44,0,0,0-42.26.22L430,726.42C398.27,685.18,402.67,737.47,417.7,768.18Z"/><path id="utility_example-4" data-name="utility_example" class="cls-20" d="M427.91,749.59,706,900.09a77.47,77.47,0,0,0,74.5-.42L1112.69,715c17.92-11.46,15.92-32.07-.24-40.8L802.08,506.55a44,44,0,0,0-42.17.22L427.62,690.84C404.47,703.66,394.06,733.2,427.91,749.59Z"/></g><g id="graphs"><polygon class="cls-21" points="636.97 727.63 840.37 615.46 874.76 633.25 671.13 746.13 636.97 727.63"/><polygon class="cls-22" points="636.97 727.63 637 733.02 671.02 751.41 671.1 746.14 636.97 727.63"/><line class="cls-23" x1="731.01" y1="717.64" x2="672.08" y2="750.37"/><polygon class="cls-24" points="874.76 636.81 874.76 633.25 671.1 746.14 670.93 751.46 874.76 636.81"/><polygon class="cls-21" points="701.02 763.21 829.69 692.55 860.53 710.34 735.18 781.71 701.02 763.21"/><polygon class="cls-24" points="860.53 716.27 860.53 710.34 735.15 781.72 734.98 787.04 860.53 716.27"/><polygon class="cls-22" points="701.02 763.21 701.05 768.61 735.07 786.99 735.15 781.72 701.02 763.21"/><polygon class="cls-21" points="773.37 801.16 868.83 748.3 902.04 766.09 807.53 819.66 773.37 801.16"/><polygon class="cls-24" points="902.04 770.83 902.04 766.09 807.5 819.67 807.33 825 902.04 770.83"/><polygon class="cls-22" points="773.37 801.16 773.4 806.56 807.42 824.95 807.5 819.67 773.37 801.16"/><text class="cls-25" transform="matrix(0.75, 0.33, -0.91, 0.42, 744.78, 568.57)">78</text><ellipse class="cls-26" cx="778.01" cy="571.42" rx="49.81" ry="21.7"/><text class="cls-27" transform="matrix(0.75, 0.33, -0.91, 0.42, 635.12, 623.86)">52</text><ellipse class="cls-28" cx="670.98" cy="626.78" rx="49.59" ry="24.63"/><text class="cls-29" transform="matrix(0.75, 0.38, -0.89, 0.45, 525.74, 685.02)">23</text><ellipse class="cls-30" cx="558.3" cy="688.96" rx="48" ry="26.62"/></g><g id="red"><path id="utility_example-5" data-name="utility_example" class="cls-31" d="M1297.76,319.84a48.4,48.4,0,0,0,20.45,21.26l270.26,146.24a77.48,77.48,0,0,0,74.49-.42l332-184.57c16.88-6.81,20.44-67.3-.91-73.23l-309.5-135.3a44,44,0,0,0-42.26.23l-332.25,184C1278.33,236.85,1282.73,289.13,1297.76,319.84Z"/><path id="utility_example-6" data-name="utility_example" class="cls-32" d="M1308,301.26l278.12,150.5a77.49,77.49,0,0,0,74.5-.42l332.17-184.66c17.91-11.46,15.91-32.07-.25-40.8L1682.14,58.22a43.92,43.92,0,0,0-42.17.22L1307.68,242.51C1284.53,255.33,1274.12,284.87,1308,301.26Z"/></g><g id="red_stuff"><polygon id="DB_connection" class="cls-33" points="1641.41 211.3 1553.73 163.76 1462.4 214.76 1455.29 207.65 1554.26 150.63 1650.9 204.18 1641.41 211.3"/><g id="laptop"><path class="cls-34" d="M1695.72,184l132.85,78c3.36,1.82,10.49-3.43,11-8.3V91.86a16.93,16.93,0,0,0-9-14.93L1694.79,4.23c-3.43-1.83-12.32,3.75-11.5,7.4l3.16,156.66A17.73,17.73,0,0,0,1695.72,184Z"/><path class="cls-35" d="M1691.29,187.65l136.42,74.08a5,5,0,0,0,7.43-4.42l-.43-163.88a16.94,16.94,0,0,0-8.94-14.94L1690.36,7.94a5.16,5.16,0,0,0-7.6,4.53L1682,172A17.72,17.72,0,0,0,1691.29,187.65Z"/><path class="cls-36" d="M1697.56,180.89,1819.5,247.1a4.49,4.49,0,0,0,6.64-3.95l-.38-146.48a15.14,15.14,0,0,0-8-13.35l-121-63.06a4.61,4.61,0,0,0-6.79,4l-.66,142.58A15.86,15.86,0,0,0,1697.56,180.89Z"/><g id="laptop_base"><path class="cls-37" d="M1538.27,265.09l135.62-65.72a21.25,21.25,0,0,1,20.45-.09L1827.61,262c3.72,2,2.89,16.51-.8,18.58l-132.52,74.59a24.32,24.32,0,0,1-23.55.15l-131.56-71.76C1535.46,281.55,1534.57,267.14,1538.27,265.09Z"/><path class="cls-38" d="M1539.14,264.18l134.75-74.78a21.23,21.23,0,0,1,20.45-.1l132.4,71.91a5.37,5.37,0,0,1,.07,9.41l-132.52,74.59a24.29,24.29,0,0,1-23.55.16L1539.18,273.6A5.38,5.38,0,0,1,1539.14,264.18Z"/></g><polygon id="touchpad" class="cls-39" points="1632.81 321.05 1585.2 295.12 1631.96 269.19 1678.72 295.54 1632.81 321.05"/><g id="power_button"><ellipse class="cls-40" cx="1817.14" cy="264.87" rx="5.53" ry="3.19"/><ellipse class="cls-41" cx="1817.34" cy="264.71" rx="2.33" ry="1.34"/><polygon class="cls-42" points="1817.78 264.07 1819.1 263.34 1819.9 263.74 1818.52 264.49 1817.78 264.07"/></g><g id="Motherboard_circuits"><polygon id="background" class="cls-43" points="1590.78 245.04 1683.04 194.22 1808.18 262.13 1715.5 314.24 1590.78 245.04"/><g id="border"><polygon class="cls-44" points="1682.39 192.28 1588.35 243.9 1592.56 246.16 1682.39 196.55 1682.39 192.28"/><polygon class="cls-45" points="1682.39 192.28 1682.39 196.55 1764.26 240.51 1767.81 238.41 1682.39 192.28"/><polygon class="cls-46" points="1766.93 237.99 1747.74 248.23 1791.52 271.72 1808.66 262.34 1766.93 237.99"/><polygon class="cls-45" points="1747.74 248.23 1747.74 252.07 1787.96 273.66 1791.52 271.72 1747.74 248.23"/></g><g id="cable_group"><polyline class="cls-47" points="1657.26 268.81 1669.88 277.22 1668.91 279.49 1669.88 280.13"/><polyline class="cls-47" points="1657.91 268.49 1670.52 276.9 1669.55 279.16 1670.52 279.81"/></g><g id="cable_group-2" data-name="cable_group"><line class="cls-47" x1="1716.79" y1="240.99" x2="1722.93" y2="237.11"/><line class="cls-47" x1="1717.11" y1="241.31" x2="1723.26" y2="237.43"/></g><g id="cable_group-3" data-name="cable_group"><polyline class="cls-47" points="1691.88 240.34 1673.76 230.64 1655.32 240.99"/><polyline class="cls-47" points="1689.3 239.77 1673.76 231.28 1654.99 241.63"/><polyline class="cls-47" points="1691.23 239.37 1673.76 229.99 1655.32 240.34"/><polyline class="cls-47" points="1692.52 239.37 1673.76 229.34 1654.35 240.34"/></g><g id="cable_group-4" data-name="cable_group"><polyline class="cls-47" points="1706.76 286.93 1710.32 288.87 1743.96 270.43 1746.22 270.75 1748.17 269.46"/><polyline class="cls-47" points="1704.82 286.28 1710.64 289.51 1744.28 271.07 1746.55 271.4 1748.49 270.1"/><polyline class="cls-47" points="1704.49 286.6 1710.89 290.1 1744.54 271.66 1746.8 271.98 1750.11 269.78"/><polyline class="cls-47" points="1703.52 286.6 1711.22 290.74 1744.86 272.3 1747.13 272.63 1751.08 269.78"/><polyline class="cls-47" points="1702.88 286.6 1711.54 291.39 1745.19 272.95 1747.45 273.27 1751.72 270.43"/><polyline class="cls-47" points="1702.88 287.25 1711.54 292.04 1745.19 273.6 1747.45 273.92 1751.72 271.07"/></g><g id="cable_group-5" data-name="cable_group"><line class="cls-47" x1="1678.01" y1="258.15" x2="1698.35" y2="269.46"/><line class="cls-47" x1="1678.98" y1="257.5" x2="1698.99" y2="268.81"/><line class="cls-47" x1="1679.91" y1="256.84" x2="1699.64" y2="268.16"/><line class="cls-47" x1="1680.55" y1="256.52" x2="1700.61" y2="267.52"/></g><g id="_0cable_group" data-name="0cable_group"><polyline class="cls-48" points="1684.76 252.68 1700.08 260.7 1696.88 262.83 1704.82 267.27"/><polyline class="cls-48" points="1686.26 252.77 1701.62 260.7 1698.7 262.83 1704.05 265.67"/><polyline class="cls-48" points="1685.48 251.58 1703.08 260.7 1700.16 262.83 1705.51 265.67"/><polyline class="cls-47" points="1683.7 252.88 1698.59 260.64 1695.5 263 1701.82 266.46"/></g><g id="cable_group-6" data-name="cable_group"><polyline id="cable" class="cls-47" points="1685.08 213.81 1702.5 223.72 1705.14 222.55"/><polyline id="cable-2" data-name="cable" class="cls-47" points="1684.76 214.14 1702.5 224.37 1705.79 222.87"/><polyline id="cable-3" data-name="cable" class="cls-47" points="1683.79 214.46 1702.5 225.02 1706.11 223.19"/><polyline id="cable-4" data-name="cable" class="cls-47" points="1683.14 214.78 1702.5 225.66 1707.08 223.19"/></g><g id="cable_group-7" data-name="cable_group"><polyline id="Cable-5" data-name="Cable" class="cls-47" points="1690.06 210.88 1694.06 213.13 1696.97 212.81 1698.55 213.86 1704.73 217.98"/><polyline id="Cable-6" data-name="Cable" class="cls-47" points="1690.68 210.47 1694.38 212.48 1697.29 212.16 1698.87 213.21 1705.06 217.34"/><polyline id="Cable-7" data-name="Cable" class="cls-47" points="1691.01 209.83 1694.7 211.84 1697.61 211.51 1699.19 212.56 1705.92 217.03"/><polyline id="Cable-8" data-name="Cable" class="cls-47" points="1691.33 209.18 1695.03 211.19 1697.94 210.86 1699.52 211.92 1707.21 217.03"/></g><g id="yCircuit_group"><polygon class="cls-36" points="1679.98 205.53 1689.37 210.38 1692.92 208.44 1683.87 203.59 1679.98 205.53"/><polygon class="cls-34" points="1689.37 210.38 1689.37 211.35 1692.92 209.41 1692.92 208.44 1689.37 210.38"/><polygon class="cls-35" points="1679.98 205.53 1689.37 210.38 1689.37 211.35 1679.98 206.5 1679.98 205.53"/><polygon class="cls-36" points="1673.19 209.73 1682.57 214.59 1686.13 212.64 1677.07 207.79 1673.19 209.73"/><polygon class="cls-34" points="1682.57 214.59 1682.57 215.56 1686.13 213.61 1686.13 212.64 1682.57 214.59"/><polygon class="cls-35" points="1673.19 209.73 1682.57 214.59 1682.57 215.56 1673.19 210.7 1673.19 209.73"/></g><g id="yCircuit_group-2" data-name="yCircuit_group"><polygon class="cls-36" points="1674.81 248.55 1684.19 253.41 1687.75 251.47 1678.69 246.61 1674.81 248.55"/><polygon class="cls-34" points="1684.19 253.41 1684.19 254.38 1687.75 252.44 1687.75 251.47 1684.19 253.41"/><polygon class="cls-35" points="1674.81 248.55 1684.19 253.41 1684.19 254.38 1674.81 249.52 1674.81 248.55"/><polygon class="cls-36" points="1668.01 252.76 1677.39 257.61 1680.95 255.67 1671.89 250.82 1668.01 252.76"/><polygon class="cls-34" points="1677.39 257.61 1677.39 258.58 1680.95 256.64 1680.95 255.67 1677.39 257.61"/><polygon class="cls-35" points="1668.01 252.76 1677.39 257.61 1677.39 258.58 1668.01 253.73 1668.01 252.76"/><polygon class="cls-36" points="1687.75 240.47 1697.13 245.32 1700.69 243.38 1691.63 238.53 1687.75 240.47"/><polygon class="cls-34" points="1697.13 245.32 1697.13 246.29 1700.69 244.35 1700.69 243.38 1697.13 245.32"/><polygon class="cls-35" points="1687.75 240.47 1697.13 245.32 1697.13 246.29 1687.75 241.44 1687.75 240.47"/><polygon class="cls-36" points="1680.95 244.67 1690.34 249.52 1693.89 247.58 1684.84 242.73 1680.95 244.67"/><polygon class="cls-34" points="1690.34 249.52 1690.34 250.49 1693.89 248.55 1693.89 247.58 1690.34 249.52"/><polygon class="cls-35" points="1680.95 244.67 1690.34 249.52 1690.34 250.49 1680.95 245.64 1680.95 244.67"/></g><g id="yCircuit_group-3" data-name="yCircuit_group"><polygon class="cls-36" points="1694.35 282.97 1703.73 287.82 1707.29 285.88 1698.23 281.03 1694.35 282.97"/><polygon class="cls-34" points="1703.73 287.82 1703.73 288.79 1707.29 286.85 1707.29 285.88 1703.73 287.82"/><polygon class="cls-35" points="1694.35 282.97 1703.73 287.82 1703.73 288.79 1694.35 283.94 1694.35 282.97"/><polygon class="cls-36" points="1687.55 287.18 1696.93 292.03 1700.49 290.09 1691.43 285.24 1687.55 287.18"/><polygon class="cls-34" points="1696.93 292.03 1696.93 293 1700.49 291.06 1700.49 290.09 1696.93 292.03"/><polygon class="cls-35" points="1687.55 287.18 1696.93 292.03 1696.93 293 1687.55 288.15 1687.55 287.18"/></g><g id="yCircuit_group-4" data-name="yCircuit_group"><polygon class="cls-36" points="1751.8 263.24 1761.18 268.09 1764.74 266.15 1755.68 261.3 1751.8 263.24"/><polygon class="cls-34" points="1761.18 268.09 1761.18 269.06 1764.74 267.12 1764.74 266.15 1761.18 268.09"/><polygon class="cls-35" points="1751.8 263.24 1761.18 268.09 1761.18 269.06 1751.8 264.21 1751.8 263.24"/><polygon class="cls-36" points="1745.01 267.44 1754.39 272.29 1757.95 270.35 1748.89 265.5 1745.01 267.44"/><polygon class="cls-34" points="1754.39 272.29 1754.39 273.26 1757.95 271.32 1757.95 270.35 1754.39 272.29"/><polygon class="cls-35" points="1745.01 267.44 1754.39 272.29 1754.39 273.26 1745.01 268.41 1745.01 267.44"/></g><g id="white_metal"><polygon class="cls-49" points="1644.71 234.5 1661.3 243.47 1648.3 250.19 1631.71 241.23 1644.71 234.5"/><polygon class="cls-50" points="1648.3 250.19 1648.3 252.44 1631.71 243.47 1631.71 241.23 1648.3 250.19"/><polygon class="cls-51" points="1648.3 250.19 1648.3 252.44 1661.3 245.26 1661.3 243.47 1648.3 250.19"/></g><g id="white_metal-2" data-name="white_metal"><polygon class="cls-49" points="1706.56 216.04 1714.34 220.25 1708.24 223.4 1700.46 219.19 1706.56 216.04"/><polygon class="cls-50" points="1708.24 223.4 1708.24 224.45 1700.46 220.25 1700.46 219.19 1708.24 223.4"/><polygon class="cls-51" points="1708.24 223.4 1708.24 224.45 1714.34 221.09 1714.34 220.25 1708.24 223.4"/></g><g id="circuit_group"><polygon class="cls-52" points="1697.45 269.13 1700.63 267.32 1703.92 269.02 1700.63 270.84 1697.45 269.13"/><polygon class="cls-53" points="1703.92 269.02 1703.92 269.25 1700.63 271.06 1700.63 270.84 1703.92 269.02"/><polygon class="cls-54" points="1700.63 270.84 1700.63 271.06 1697.45 269.36 1697.45 269.13 1700.63 270.84"/><polygon class="cls-52" points="1701.66 271.72 1704.84 269.9 1708.13 271.61 1704.84 273.42 1701.66 271.72"/><polygon class="cls-53" points="1708.13 271.61 1708.13 271.83 1704.84 273.65 1704.84 273.42 1708.13 271.61"/><polygon class="cls-54" points="1704.84 273.42 1704.84 273.65 1701.66 271.95 1701.66 271.72 1704.84 273.42"/><polygon class="cls-52" points="1705.86 269.14 1709.04 267.32 1712.33 269.02 1709.04 270.84 1705.86 269.14"/><polygon class="cls-53" points="1712.33 269.02 1712.33 269.25 1709.04 271.07 1709.04 270.84 1712.33 269.02"/><polygon class="cls-54" points="1709.04 270.84 1709.04 271.07 1705.86 269.37 1705.86 269.14 1709.04 270.84"/><polygon class="cls-52" points="1701.34 266.55 1704.51 264.73 1707.81 266.43 1704.51 268.25 1701.34 266.55"/><polygon class="cls-53" points="1707.81 266.43 1707.81 266.66 1704.51 268.48 1704.51 268.25 1707.81 266.43"/><polygon class="cls-54" points="1704.51 268.25 1704.51 268.48 1701.34 266.77 1701.34 266.55 1704.51 268.25"/></g><g id="circuit_group-2" data-name="circuit_group"><polygon class="cls-52" points="1708.78 239.69 1711.95 237.88 1715.25 239.58 1711.95 241.4 1708.78 239.69"/><polygon class="cls-53" points="1715.25 239.58 1715.25 239.81 1711.95 241.62 1711.95 241.4 1715.25 239.58"/><polygon class="cls-54" points="1711.95 241.4 1711.95 241.62 1708.78 239.92 1708.78 239.69 1711.95 241.4"/><polygon class="cls-52" points="1712.98 242.28 1716.16 240.47 1719.45 242.17 1716.16 243.98 1712.98 242.28"/><polygon class="cls-53" points="1719.45 242.17 1719.45 242.4 1716.16 244.21 1716.16 243.98 1719.45 242.17"/><polygon class="cls-54" points="1716.16 243.98 1716.16 244.21 1712.98 242.51 1712.98 242.28 1716.16 243.98"/></g><g id="circuit_group-3" data-name="circuit_group"><polygon class="cls-52" points="1668.01 281.43 1671.19 279.61 1674.48 281.31 1671.19 283.13 1668.01 281.43"/><polygon class="cls-53" points="1674.48 281.31 1674.48 281.54 1671.19 283.36 1671.19 283.13 1674.48 281.31"/><polygon class="cls-54" points="1671.19 283.13 1671.19 283.36 1668.01 281.65 1668.01 281.43 1671.19 283.13"/><polygon class="cls-52" points="1672.22 284.01 1675.4 282.2 1678.69 283.9 1675.4 285.72 1672.22 284.01"/><polygon class="cls-53" points="1678.69 283.9 1678.69 284.13 1675.4 285.94 1675.4 285.72 1678.69 283.9"/><polygon class="cls-54" points="1675.4 285.72 1675.4 285.94 1672.22 284.24 1672.22 284.01 1675.4 285.72"/></g><g id="circuit_group-4" data-name="circuit_group"><polygon class="cls-52" points="1717.19 234.19 1720.37 232.38 1723.66 234.08 1720.37 235.9 1717.19 234.19"/><polygon class="cls-53" points="1723.66 234.08 1723.66 234.31 1720.37 236.12 1720.37 235.9 1723.66 234.08"/><polygon class="cls-54" points="1720.37 235.9 1720.37 236.12 1717.19 234.42 1717.19 234.19 1720.37 235.9"/><polygon class="cls-52" points="1721.39 236.78 1724.57 234.97 1727.86 236.67 1724.57 238.49 1721.39 236.78"/><polygon class="cls-53" points="1727.86 236.67 1727.86 236.9 1724.57 238.71 1724.57 238.49 1727.86 236.67"/><polygon class="cls-54" points="1724.57 238.49 1724.57 238.71 1721.39 237.01 1721.39 236.78 1724.57 238.49"/><polygon class="cls-52" points="1725.6 234.2 1728.77 232.38 1732.07 234.09 1728.77 235.9 1725.6 234.2"/><polygon class="cls-53" points="1732.07 234.09 1732.07 234.31 1728.77 236.13 1728.77 235.9 1732.07 234.09"/><polygon class="cls-54" points="1728.77 235.9 1728.77 236.13 1725.6 234.43 1725.6 234.2 1728.77 235.9"/><polygon class="cls-52" points="1721.07 231.61 1724.25 229.79 1727.54 231.49 1724.25 233.31 1721.07 231.61"/><polygon class="cls-53" points="1727.54 231.49 1727.54 231.72 1724.25 233.54 1724.25 233.31 1727.54 231.49"/><polygon class="cls-54" points="1724.25 233.31 1724.25 233.54 1721.07 231.83 1721.07 231.61 1724.25 233.31"/></g><g id="circuit_group-5" data-name="circuit_group"><polygon class="cls-52" points="1648.93 265.57 1652.1 263.76 1655.4 265.46 1652.1 267.28 1648.93 265.57"/><polygon class="cls-53" points="1655.4 265.46 1655.4 265.69 1652.1 267.5 1652.1 267.28 1655.4 265.46"/><polygon class="cls-54" points="1652.1 267.28 1652.1 267.5 1648.93 265.8 1648.93 265.57 1652.1 267.28"/><polygon class="cls-52" points="1653.13 268.16 1656.31 266.35 1659.6 268.05 1656.31 269.87 1653.13 268.16"/><polygon class="cls-53" points="1659.6 268.05 1659.6 268.28 1656.31 270.09 1656.31 269.87 1659.6 268.05"/><polygon class="cls-54" points="1656.31 269.87 1656.31 270.09 1653.13 268.39 1653.13 268.16 1656.31 269.87"/><polygon class="cls-52" points="1657.33 265.58 1660.51 263.76 1663.8 265.47 1660.51 267.28 1657.33 265.58"/><polygon class="cls-53" points="1663.8 265.47 1663.8 265.69 1660.51 267.51 1660.51 267.28 1663.8 265.47"/><polygon class="cls-54" points="1660.51 267.28 1660.51 267.51 1657.33 265.81 1657.33 265.58 1660.51 267.28"/><polygon class="cls-52" points="1652.81 262.99 1655.99 261.17 1659.28 262.87 1655.99 264.69 1652.81 262.99"/><polygon class="cls-53" points="1659.28 262.87 1659.28 263.1 1655.99 264.92 1655.99 264.69 1659.28 262.87"/><polygon class="cls-54" points="1655.99 264.69 1655.99 264.92 1652.81 263.21 1652.81 262.99 1655.99 264.69"/></g><ellipse id="torn" class="cls-55" cx="1768.52" cy="243.42" rx="1.14" ry="0.66"/><ellipse id="torn-2" data-name="torn" class="cls-55" cx="1796.93" cy="259.49" rx="1.14" ry="0.66"/><ellipse id="torn-3" data-name="torn" class="cls-55" cx="1788.07" cy="264.58" rx="1.14" ry="0.66"/><ellipse id="torn-4" data-name="torn" class="cls-55" cx="1760.7" cy="247.87" rx="1.14" ry="0.66"/></g></g><g id="Database_structure" data-name="Database structure"><path class="cls-38" d="M1400.56,226.92a.89.89,0,0,0-.89.89v43.66c0,13.24,18.59,24,41.51,24s41.52-10.73,41.52-24V227.81a.89.89,0,0,0-.89-.89Z"/><path class="cls-56" d="M1484.73,249.2c0,14.05-19.49,25.44-43.53,25.44s-44.59-10.94-43.52-25.44c1-14,19.49-25.44,43.52-25.44S1484.73,235.15,1484.73,249.2Z"/><rect class="cls-38" x="1399.67" y="228.94" width="83.03" height="26.33"/><rect class="cls-32" x="1482.74" y="238.06" width="4.83" height="25.32"/><rect class="cls-32" x="1394.55" y="238.06" width="5.11" height="25.32"/><ellipse class="cls-37" cx="1441.18" cy="226.92" rx="41.52" ry="23.97"/><g id="null_logo_official"><path class="cls-57" d="M1439.68,223.17l-3.73,2.15c-5.68,3.27,2.91,8.35,8.68,5l8.73-5,7-4"/><path class="cls-57" d="M1436.26,225.14l4.53-2.62c5.67-3.27-2.91-8.35-8.69-5l-8.73,5"/><line class="cls-57" x1="1463.76" y1="223.27" x2="1444.06" y2="234.64"/></g></g></g></g></g></g></g></svg>