<svg xmlns="http://www.w3.org/2000/svg" viewBox="0 0 732.91 468.47"><defs><style>.cls-1,.cls-2,.cls-4{stroke:#fff;stroke-miterlimit:10;}.cls-1,.cls-2{stroke-width:7.46px;}.cls-2{fill:#020202;}.cls-3{opacity:0.98;}.cls-4{fill:none;stroke-linecap:round;stroke-width:9.35px;}</style></defs><title>Recurso 1</title><g id="Capa_2" data-name="Capa 2"><g id="Capa_1-2" data-name="Capa 1"><g id="null_tile_transparent"><path id="Null_tile" data-name="Null tile" class="cls-1" d="M18.53,195.83,336.86,45.58a52.23,52.23,0,0,1,52-.21L714.53,195.83c22,12.5,18.06,76.72-3.93,89.17L417.08,451.14a104.8,104.8,0,0,1-103.5-.14L21.76,284.78C-.06,272.35-3.2,208.43,18.53,195.83Z"/><path id="Null_tile-2" data-name="Null tile" class="cls-2" d="M21.55,193.53,336.86,10.77a52.23,52.23,0,0,1,52-.21l321.79,183c22,12.5,21.93,44.17-.06,56.62L417.08,416.33a104.8,104.8,0,0,1-103.5-.14L21.76,250C-.06,237.54-.18,206.12,21.55,193.53Z"/><g id="null_logo" data-name="null logo" class="cls-3"><path class="cls-4" d="M342.8,205.43l-33.21,19.18c-50.48,29.14,25.91,74.34,77.33,44.65l77.7-44.87,61.89-35.73"/><path class="cls-4" d="M312.42,223l40.27-23.25c50.48-29.15-25.91-74.34-77.33-44.65l-77.7,44.86"/><line class="cls-4" x1="557.15" y1="206.36" x2="381.85" y2="307.58"/></g></g></g></g></svg>