<svg xmlns="http://www.w3.org/2000/svg" viewBox="0 0 98.02 94.39"><defs><style>.cls-1{fill:#f3f2f2;}.cls-2{fill:#070308;}.cls-3{fill:#fff;}.cls-4{fill:#9c9c9c;}.cls-5{fill:#a7a6a7;}</style></defs><title>Recurso 13</title><g id="Capa_2" data-name="Capa 2"><g id="Capa_1-2" data-name="Capa 1"><g id="ig_WHITE"><path class="cls-1" d="M49,94.37q-10,0-20,0a29.36,29.36,0,0,1-13.3-3A28.75,28.75,0,0,1,5.54,83,27.6,27.6,0,0,1,.31,69.83,37,37,0,0,1,0,64.18C0,52.08,0,40,.05,27.89A26.68,26.68,0,0,1,4.16,13.3,28.28,28.28,0,0,1,23.87.37,31.77,31.77,0,0,1,29.11,0Q49,0,68.94,0A29.41,29.41,0,0,1,85.11,4.48a35.94,35.94,0,0,1,4.4,3.45,27.8,27.8,0,0,1,5.71,7.72A22.24,22.24,0,0,1,98,26.38C98.05,40.26,98,54.14,98,68a22,22,0,0,1-2.19,9.65A28.35,28.35,0,0,1,91,85a28.64,28.64,0,0,1-21,9.37c-7,.09-14,0-21.05,0Z"/><path class="cls-2" d="M49.14,87.11c-6.68,0-13.36,0-20,0a21.75,21.75,0,0,1-13.45-4.3,22.34,22.34,0,0,1-4.92-5.35,18.64,18.64,0,0,1-3.08-11q0-19.41,0-38.83a18.37,18.37,0,0,1,1.81-8.52A20.63,20.63,0,0,1,25.52,7.47a26.48,26.48,0,0,1,4-.21h40A20.8,20.8,0,0,1,83,11.94a19.24,19.24,0,0,1,7.39,15.72q0,19.59,0,39.19a19,19,0,0,1-3.74,11.8,20.21,20.21,0,0,1-16.19,8.41c-7.1.17-14.21,0-21.32,0Z"/><path class="cls-3" d="M49.91,21.79a26.32,26.32,0,0,1,10,2.27A27.65,27.65,0,0,1,70,31.87c6.19,7.38,7.62,20.13.82,29.61a25.84,25.84,0,0,1-18.7,10.93A26.41,26.41,0,0,1,35.67,69a32.3,32.3,0,0,1-4.73-3.47,23.12,23.12,0,0,1-5.39-7.06c-3.81-7.1-3.75-14.36-.6-21.59a22.22,22.22,0,0,1,4.92-7.18A27.39,27.39,0,0,1,49.91,21.79Z"/><path class="cls-3" d="M79.15,14.53a3.63,3.63,0,1,1,0,7.25,3.84,3.84,0,0,1-3.75-3.64A3.81,3.81,0,0,1,79.15,14.53Z"/><path class="cls-2" d="M30.36,45.18c.58-3.77,1.84-7.3,4.55-10C40.53,29.5,47.28,27.7,55,30a17.6,17.6,0,0,1,10,7.58,16.76,16.76,0,0,1,.7,18.16C62,62.43,55.1,66,47.19,65.23A18.71,18.71,0,0,1,35.54,59.8a17.57,17.57,0,0,1-4.84-8.89c-.12-.51-.23-1-.35-1.55s.11-.88-.18-1.28V46.3A2.07,2.07,0,0,0,30.36,45.18Z"/><path class="cls-4" d="M30.17,48.08a.86.86,0,0,1,.18,1.28C30,49,30.15,48.52,30.17,48.08Z"/><path class="cls-5" d="M30.36,45.18c.21.42.33.82-.19,1.12A1.35,1.35,0,0,1,30.36,45.18Z"/></g></g></g></svg>