<svg xmlns="http://www.w3.org/2000/svg" xmlns:xlink="http://www.w3.org/1999/xlink" viewBox="0 0 115 110.75">
<defs>
<style>
.cls-1{
    fill:url(#Degradado_sin_nombre_88);
    }
.cls-2{
    fill:url(#Degradado_sin_nombre_139);
    }
.cls-3{
    fill:#fff;
    }
.cls-4{
    fill:url(#Degradado_sin_nombre_102);
    }</style>
<linearGradient id="Degradado_sin_nombre_88" x1="57.69" y1="110.81" x2="57.31" y2="-0.08" gradientUnits="userSpaceOnUse">
<stop offset="0.15" stop-color="#e1306e"/>
<stop offset="0.2" stop-color="#d0327b"/>
<stop offset="0.29" stop-color="#b43590"/>
<stop offset="0.39" stop-color="#9e37a0"/>
<stop offset="0.5" stop-color="#8f39ab"/>
<stop offset="0.62" stop-color="#863ab2"/>
<stop offset="0.81" stop-color="#833ab4"/>
</linearGradient>
<linearGradient id="Degradado_sin_nombre_139" x1="59.39" y1="153.06" x2="55.05" y2="-71.14" gradientUnits="userSpaceOnUse">
<stop offset="0.23" stop-color="#f56040"/>
<stop offset="0.35" stop-color="#f0554b"/>
<stop offset="0.55" stop-color="#e43767"/>
<stop offset="0.59" stop-color="#e1306e"/>
</linearGradient>
<linearGradient id="Degradado_sin_nombre_102" x1="56.64" y1="9.8" x2="58.64" y2="115.14" xlink:href="#Degradado_sin_nombre_139"/>
</defs>
<title>Recurso 18</title>
<g id="Capa_2" data-name="Capa 2">
<g id="Capa_4" data-name="Capa 4">
<g id="igIcon_redesign">
<path class="cls-1" d="M57.54,110.72q-11.76,0-23.52,0a34.32,34.32,0,0,1-15.61-3.51A33.82,33.82,0,0,1,6.5,97.38C2.93,92.79,1.23,87.58.36,81.92A44.61,44.61,0,0,1,0,75.3C0,61.11,0,46.92.06,32.72A31.32,31.32,0,0,1,4.89,15.6,33.1,33.1,0,0,1,28,.44,36.14,36.14,0,0,1,34.16,0Q57.52,0,80.88,0a34.52,34.52,0,0,1,19,5.26,41.38,41.38,0,0,1,5.16,4,32.47,32.47,0,0,1,6.69,9.07A26.15,26.15,0,0,1,114.94,31c.09,16.28.06,32.57,0,48.85a25.91,25.91,0,0,1-2.56,11.33,33.37,33.37,0,0,1-5.57,8.58c-6.7,7-14.85,10.85-24.59,11-8.23.12-16.46,0-24.69,0Z"/>
<path class="cls-2" d="M57.65,102.2c-7.84,0-15.69,0-23.53,0a25.48,25.48,0,0,1-15.79-5,26.25,26.25,0,0,1-5.76-6.28C9.85,87,9,82.6,9,78Q9,55.18,9,32.4a21.79,21.79,0,0,1,2.12-10A24.19,24.19,0,0,1,29.93,8.77a30.4,30.4,0,0,1,4.67-.25H81.54A24.47,24.47,0,0,1,97.38,14,22.6,22.6,0,0,1,106,32.45q0,23,0,46a22.33,22.33,0,0,1-4.38,13.85,23.74,23.74,0,0,1-19,9.86c-8.34.2-16.68,0-25,0Z"/>
<path class="cls-3" d="M58.58,25.2A31,31,0,0,1,70.3,27.87,32.67,32.67,0,0,1,82.19,37c7.26,8.66,8.93,23.62,1,34.75A30.27,30.27,0,0,1,61.2,84.59a31,31,0,0,1-19.34-4,38.82,38.82,0,0,1-5.54-4.06A27.24,27.24,0,0,1,30,68.28C25.53,60,25.6,51.44,29.29,43a26,26,0,0,1,5.78-8.42C41.15,28.69,48.48,25.22,58.58,25.2Z"/>
<path class="cls-3" d="M92.39,18.25a4.25,4.25,0,0,1,4.45,4.26,4.29,4.29,0,0,1-4.48,4.24A4.51,4.51,0,0,1,88,22.48,4.48,4.48,0,0,1,92.39,18.25Z"/>
<circle class="cls-4" cx="57.5" cy="55.01" r="21.52"/>
</g>
</g>
</g>
</svg>