<svg xmlns="http://www.w3.org/2000/svg" viewBox="0 0 100.92 64.7"><defs><style>.cls-1{fill:#fff;}</style></defs><title>Recurso 15</title><g id="Capa_2" data-name="Capa 2"><g id="Capa_1-2" data-name="Capa 1"><g id="mail_WHITE"><path class="cls-1" d="M100.92,58.94A11.35,11.35,0,0,1,98.62,63a4.88,4.88,0,0,1-3.81,1.68q-44,0-88,0a6,6,0,0,1-5.48-3A7,7,0,0,1,0,57.81V8.43c0-.12,0-.24.05-.5L5.42,12Q27.55,29,49.65,45.93a1.1,1.1,0,0,0,1.64,0q24.79-19,49.63-38Z"/><path class="cls-1" d="M50.37,0h44c.88,0,1.77.09,2.65.17.5,0,1,.18,1.16.74s-.36.72-.68,1C88.64,9.32,79.17,16,70,23.06c-6.24,4.8-12.56,9.5-18.82,14.27a.94.94,0,0,1-1.4,0Q28,20.74,6.23,4.17C5.13,3.34,4.07,2.45,3,1.54,2.4,1,2.55.44,3.38.23A11.61,11.61,0,0,1,6.32,0Z"/></g></g></g></svg>