<svg xmlns="http://www.w3.org/2000/svg" viewBox="0 0 96.04 95.99"><defs><style>.cls-1{fill:#fff;}.cls-2{fill:#070308;}</style></defs><title>Recurso 14</title><g id="Capa_2" data-name="Capa 2"><g id="Capa_1-2" data-name="Capa 1"><g id="wsp_WHITE"><path class="cls-1" d="M0,96,5.92,78.52c.73-2.16,1.44-4.33,2.23-6.47a2.28,2.28,0,0,0-.25-2.12C.42,56.46-.48,42.46,5.6,28.4c6.21-14.34,17.28-23.48,32.52-27C52-1.9,64.92.73,76.53,9a45.27,45.27,0,0,1,18.41,28,44.81,44.81,0,0,1-3.38,29.48A45.79,45.79,0,0,1,63.23,91.33a46,46,0,0,1-35.44-2.69,4.31,4.31,0,0,0-3.56-.29c-7.57,2.48-15.18,4.86-22.78,7.27C1.08,95.74.7,95.81,0,96Z"/><path class="cls-2" d="M11.83,84.49c1.52-4.52,2.94-8.84,4.46-13.12a2.71,2.71,0,0,0-.36-2.76A39.33,39.33,0,0,1,48.82,7.52,39.3,39.3,0,0,1,85.91,33c6.46,17.26.48,36.38-14.92,46.35-13.78,8.93-28.16,9.17-42.55,1.12a3.29,3.29,0,0,0-3-.35C21,81.63,16.53,83,11.83,84.49Z"/><path class="cls-1" d="M34.32,25.55c2.08-.49,3.08.84,3.8,2.66,1,2.45,2,4.89,3.07,7.3a3.35,3.35,0,0,1-.4,3.71c-.75,1-1.5,1.93-2.33,2.82a1.83,1.83,0,0,0-.23,2.48A31.68,31.68,0,0,0,53.93,58a2,2,0,0,0,2.67-.7c1-1.32,2.14-2.59,3.15-3.93a2,2,0,0,1,2.78-.77l9.22,4.36a1.76,1.76,0,0,1,1.06,1.83c-.11,5.08-2.39,7.93-8.57,9.77-2.73.81-5.3,0-7.92-.71-12.91-3.51-21.61-12.13-28.14-23.3a15.09,15.09,0,0,1-1.93-11.3,12.92,12.92,0,0,1,4.06-6.65A4.57,4.57,0,0,1,34.32,25.55Z"/></g></g></g></svg>