<svg xmlns="http://www.w3.org/2000/svg" xmlns:xlink="http://www.w3.org/1999/xlink" viewBox="0 0 125.9 125.82"><defs><style>.cls-1{fill:url(#Degradado_sin_nombre_198);}.cls-2{fill:url(#Degradado_sin_nombre_153);}.cls-3{fill:#fff;}</style><linearGradient id="Degradado_sin_nombre_198" x1="172.99" y1="-12.34" x2="-44.13" y2="134.45" gradientUnits="userSpaceOnUse"><stop offset="0.24" stop-color="#ffffc2"/><stop offset="0.61" stop-color="#daff9e"/><stop offset="0.81" stop-color="#ccff90"/></linearGradient><linearGradient id="Degradado_sin_nombre_153" x1="118.31" y1="-1.81" x2="25.46" y2="107.53" gradientUnits="userSpaceOnUse"><stop offset="0.22" stop-color="#00e676"/><stop offset="0.49" stop-color="#00df6d"/><stop offset="0.92" stop-color="#00cb56"/><stop offset="0.97" stop-color="#00c853"/></linearGradient></defs><title>Recurso 16</title><g id="Capa_2" data-name="Capa 2"><g id="Capa_4" data-name="Capa 4"><g id="wspIcon_redesign"><path class="cls-1" d="M0,125.82c2.68-7.9,5.21-15.4,7.76-22.89,1-2.83,1.89-5.68,2.93-8.49a3.06,3.06,0,0,0-.33-2.77c-9.8-17.66-11-36-3-54.44C15.47,18.44,30,6.45,50,1.77,68.15-2.49,85.1,1,100.33,11.84a59.27,59.27,0,0,1,24.12,36.75A58.71,58.71,0,0,1,120,87.24c-7.71,16.12-20.17,27.05-37.13,32.49a60.37,60.37,0,0,1-46.46-3.53,5.61,5.61,0,0,0-4.67-.39c-9.92,3.26-19.9,6.37-29.86,9.53C1.42,125.5.91,125.59,0,125.82Z"/><path class="cls-2" d="M15.51,111.39c2-5.92,3.85-11.59,5.84-17.2a3.55,3.55,0,0,0-.47-3.62C6.59,69.75,10.18,40.82,29,24A51.07,51.07,0,0,1,64,10.5a51.5,51.5,0,0,1,48.62,33.41c8.48,22.62.63,47.68-19.55,60.76-18.07,11.7-36.91,12-55.78,1.46a4.29,4.29,0,0,0-3.87-.45C27.57,107.64,21.67,109.44,15.51,111.39Z"/><path class="cls-3" d="M44.78,33a3.55,3.55,0,0,0,.8,0c2.45-.35,3.49,1.78,4.4,4,1.28,3.21,2.6,6.41,4,9.57a4.38,4.38,0,0,1-.53,4.86c-1,1.26-2,2.53-3.06,3.7a2.41,2.41,0,0,0-.3,3.25A41.6,41.6,0,0,0,70.72,76a3,3,0,0,0,3.49-.94c1.35-1.73,2.8-3.38,4.11-5.14s3.14-1.9,5.8.54a15,15,0,0,0,8.1,3.68c2.4.33,3.26,1.21,3.22,2.89-.14,6.66-3.13,10.39-11.23,12.8-3.59,1.06-6.95,0-10.38-.93C56.9,84.3,45.5,73,36.94,58.36a19.78,19.78,0,0,1-2.53-14.81,17,17,0,0,1,5.33-8.73A6.71,6.71,0,0,1,44.78,33Z"/></g></g></g></svg>