<svg xmlns="http://www.w3.org/2000/svg" viewBox="0 0 225.53 187.29"><defs><style>.cls-1{fill:#fff;}</style></defs><title>Recurso 17</title><g id="Capa_2" data-name="Capa 2"><g id="Capa_3" data-name="Capa 3"><g id="repair_logo"><g id="full_Monitor"><path id="monitor" class="cls-1" d="M143.4,180.37a4.07,4.07,0,0,1-3.05,6.69h0q-27.52.24-55.06.22h-.14a4.09,4.09,0,0,1-3.51-5.93,8.11,8.11,0,0,1,.57-.94c3.5-4.92,7.65-9.42,10.82-14.52,4.14-6.66,2.44-9.31-5.32-9.32q-39.19,0-78.38,0c-8.47,0-9.31-.82-9.31-9.26q0-69,0-138C0,1.05,1.05,0,9.36,0H216c8.11,0,9.52,1.37,9.52,9.34q0,69,0,138c0,8.51-1.06,9.5-9.86,9.5-25.91,0-51.82,0-77.73.09a14.85,14.85,0,0,0-4,.69,4.08,4.08,0,0,0-2.84,4.88,14.36,14.36,0,0,0,2,5.09C136.16,171.84,139.58,175.86,143.4,180.37ZM6.1,10.35V125.48a4.11,4.11,0,0,0,4.1,4.1H214.73a4.1,4.1,0,0,0,4.1-4.1V10.35a4.1,4.1,0,0,0-4.1-4.1H10.2A4.11,4.11,0,0,0,6.1,10.35Z"/><path id="gear" class="cls-1" d="M69.47,80.39c1-4,2.69-6.54,7.63-5.23,3.86,1,5.83-1,6.41-5,.27-1.85,1.83-4.47,3.35-4.93s4.38.77,5.58,2.17c3,3.54,5.63,3.91,9.31,1,1.32-1,4.32-1.66,5.38-.87a7.3,7.3,0,0,1,2.31,5.56c-.22,4.11.65,6.51,5.24,7.14,1.85.25,4.41,1.88,4.91,3.45s-.84,4.28-2.24,5.42c-3.77,3.06-3.54,5.73-.82,9.31a6.12,6.12,0,0,1,.62,5.44,5.87,5.87,0,0,1-4.9,2.38c-5-.71-7.13,1.21-7.85,6-.25,1.6-2,3.78-3.4,4.18a5.91,5.91,0,0,1-5.14-1.76c-3-3.94-5.69-4.58-9.67-1.33-1.27,1-4.2,1.38-5.52.6s-2.46-3.47-2.24-5.12c.68-5.1-1.33-7-6.23-7.47a4.77,4.77,0,0,1-3.27-8C74.33,87,74.33,87,69.47,80.39Zm24.64-2.06a12.5,12.5,0,0,0-12.72,12,12.9,12.9,0,0,0,12,12.88c6.87.27,13.1-5.64,13.09-12.44A12.66,12.66,0,0,0,94.11,78.33Z"/><path id="gear-2" data-name="gear" class="cls-1" d="M147.23,67.81c-6.33-1.08-7.84,1.33-8.55,5.39-.3,1.68-1.89,4-3.34,4.4A6.21,6.21,0,0,1,130,75.75c-3.21-4-6.12-3.78-9.87-.85-1.17.9-3.84,1.3-4.88.58-1.4-1-2.81-3.36-2.61-5,.63-5.2-1-7.72-6.44-8-1.36-.08-3.35-1.9-3.71-3.27s.29-4.09,1.42-4.88c4.69-3.25,5-6.44,1.25-10.64a4.73,4.73,0,0,1-.38-4.41c.82-1.34,2.92-2.94,4.25-2.76,5.53.72,8.86-.46,8.81-6.87,0-1.11,1.86-2.94,3.1-3.18,1.58-.3,4.26.12,5,1.21,3.45,5.18,6.84,4.88,11.13,1.11.86-.76,3.39-.64,4.43.09,1.26.9,2.63,3,2.41,4.35-.82,4.94.12,7.95,5.77,8.54,1.59.17,3.85,1.9,4.22,3.33A6,6,0,0,1,152,50.18c-3.36,2.56-4.2,4.92-1.87,8.72,1.12,1.81,1.83,4.71,1.15,6.53C150.7,66.9,147.81,67.5,147.23,67.81ZM128,39.44A13,13,0,0,0,115.64,52,12.73,12.73,0,0,0,128,64.5c6.87.08,13-6,12.77-12.76S134.47,39.34,128,39.44Z"/><circle cx="211.36" cy="143.79" r="4.45"/></g></g></g></g></svg>