<svg xmlns="http://www.w3.org/2000/svg" viewBox="0 0 235.2 235.2"><defs><style>.cls-1,.cls-2{fill:#fff;}.cls-2{stroke:#000;stroke-miterlimit:10;stroke-width:9px;}</style></defs><title>Recurso 15</title><g id="Capa_2" data-name="Capa 2"><g id="Capa_3" data-name="Capa 3"><g id="web_logo" data-name="web logo"><g id="web_page"><path class="cls-1" d="M117.59,0A117.6,117.6,0,1,1,0,117.47,117.55,117.55,0,0,1,117.59,0Zm108.1,112.8c-1.32-24.11-9.44-45.21-24.08-63.3L167.88,63.7a226.62,226.62,0,0,1,6.25,49.1Zm-57.85,58.62,33.79,14.28a107.56,107.56,0,0,0,24-63.16H174.09A220.89,220.89,0,0,1,167.84,171.42Zm-158.39-49c1.34,24,9.42,45.14,24.08,63.29l33.52-14.15c-4.09-15.95-5.83-32.44-6.38-49.14ZM33.56,49.5a107.29,107.29,0,0,0-24,63.17H60.72a229.2,229.2,0,0,1,6.34-49Zm79.1,63.24V71L76.18,66.13a208.88,208.88,0,0,0-5.92,46.61Zm0,51.39V122.52H70.22c.48,16,2.12,31.67,6,46.5Zm46.07-97.92L122.52,71v41.76h42.05A204.37,204.37,0,0,0,158.76,66.21Zm-36.23,56.25v41.67L158.76,169a204.3,204.3,0,0,0,5.81-46.54ZM79,179.08c4.15,12.68,9.2,24.77,18,34.8,3.1,3.54,7.1,6.32,10.85,9.24,1.31,1,3.12,1.4,4.84,2.14V174.42C105.1,174,84.54,176.77,79,179.08ZM112.76,9.57c-20.22,9.62-26.85,28.15-33.9,46.48,5.47,2.45,28.19,5.44,33.9,4.55Zm9.72,164.62v51.3c20-9.71,26.65-28.15,33.75-46.78A160.57,160.57,0,0,0,122.48,174.19ZM156,56.49c-3.59-11.19-7.84-21.7-14.74-30.83a82.42,82.42,0,0,0-11-11.43c-2.08-1.87-4.95-2.86-7.77-4.42v51A156.17,156.17,0,0,0,156,56.49Zm-12.14,165.8c19.73-4.8,36.55-14.46,51.34-29.31l-29.76-12.29C160.35,196.2,154.16,210.29,143.85,222.29Zm-.43-209.41c10.71,12,16.93,26.16,22,41.57l29.33-12.14C187,31.16,156.52,13.75,143.42,12.88ZM91.49,222.23c-10.73-11.9-16.9-26.09-22-41.47L40.42,192.84C48.69,204.3,78.65,221.45,91.49,222.23ZM69.6,54.4c5-15.51,11.22-29.58,22.29-41.9A108.83,108.83,0,0,0,40.13,42.15Z"/></g><path class="cls-2" d="M186.81,171.82c-3.21-.91-5-3.17-6.18-6.18-2.48-6.08-5.17-12.08-7.78-18.11-.14-.33-.3-.65-.5-1.1-.35.31-.64.56-.92.82-2.75,2.58-5.49,5.2-8.26,7.76a7.58,7.58,0,0,1-12.66-3.53,10.7,10.7,0,0,1-.26-2.59q-.06-33.75-.09-67.49c0-4.34,2.21-7.06,6.49-8a1.08,1.08,0,0,0,.28-.15h1.75c2.41.5,4.17,2,5.91,3.63q23.79,22.36,47.65,44.65a8.11,8.11,0,0,1,3,6.06,7.55,7.55,0,0,1-7,7.59c-4.16.39-8.32.75-12.48,1.13a8,8,0,0,0-.81.17c.19.44.34.8.5,1.15q4.32,9.47,8.63,18.91c2.13,4.67.56,8.85-4.15,10.94-3.34,1.48-6.71,2.9-10.06,4.35Z"/></g></g></g></svg>